<svg width="57" height="53" viewBox="0 0 57 53" fill="none" xmlns="http://www.w3.org/2000/svg">
<g clip-path="url(#clip0)">
<path fill-rule="evenodd" clip-rule="evenodd" d="M0.25 0V42H56.25V0H0.25ZM31.07 3.56C27.74 4.84 24.61 7.9 22.07 13.56L19.2 19.86C13.97 31.25 11.06 33.7 3.25 33.7V2.84H30.95C31.0376 2.84 31.1223 2.87107 31.1892 2.92768C31.256 2.9843 31.3006 3.06278 31.315 3.14917C31.3294 3.23556 31.3126 3.32427 31.2678 3.39949C31.2229 3.47472 31.1529 3.53159 31.07 3.56V3.56ZM53.25 8.3V39.16H25.57C25.4815 39.1625 25.3951 39.1332 25.3263 39.0774C25.2576 39.0216 25.2112 38.943 25.1955 38.8559C25.1797 38.7688 25.1958 38.6789 25.2406 38.6026C25.2855 38.5263 25.3562 38.4686 25.44 38.44V38.44C28.77 37.16 31.9 34.1 34.44 28.44L37.31 22.14C42.53 10.75 45.44 8.3 53.25 8.3ZM14.89 46.5H16.05V52.5H14.57L12.85 49.74C12.56 49.27 12.31 48.74 12.31 48.74V52.48H11.14V46.48H12.5L14.5 49.75C14.6364 49.966 14.7535 50.1935 14.85 50.43V50.43V46.5H14.89ZM28.48 49H26.48V46.49H24.99V52.49H26.46V49.93H28.46V52.49H29.94V46.49H28.48V49ZM21.82 50.48C21.7235 50.2435 21.6064 50.016 21.47 49.8L19.47 46.53H18.06V52.53H19.25V48.75C19.25 48.75 19.5 49.27 19.79 49.75L21.51 52.51H22.98V46.51H21.82V50.45V50.48ZM6.94 49.93H8.85V49H6.94V47.42H9.5V46.5H5.5V52.5H9.55V51.5H6.95V49.88L6.94 49.93ZM1.63 47.93C1.59728 47.8897 1.57686 47.8408 1.57121 47.7892C1.56555 47.7376 1.57489 47.6855 1.5981 47.6391C1.62132 47.5926 1.65743 47.5539 1.7021 47.5274C1.74678 47.501 1.79813 47.488 1.85 47.49H4.04V46.5H1.44C1.10871 46.4888 0.786011 46.6066 0.539812 46.8286C0.293614 47.0505 0.14312 47.3593 0.120001 47.69C0.114135 47.913 0.160871 48.1342 0.256426 48.3357C0.35198 48.5372 0.493665 48.7134 0.67 48.85L2.67 50.85C2.72544 50.8931 2.76568 50.9528 2.78484 51.0204C2.80401 51.088 2.80111 51.1599 2.77657 51.2258C2.75202 51.2916 2.70712 51.3478 2.64838 51.3864C2.58965 51.4249 2.52015 51.4437 2.45 51.44H0V52.44H2.75C2.93815 52.4508 3.12656 52.424 3.30425 52.3612C3.48194 52.2984 3.64535 52.2009 3.78497 52.0743C3.92458 51.9477 4.03761 51.7946 4.11744 51.6239C4.19728 51.4532 4.24235 51.2683 4.25 51.08C4.24464 50.846 4.18601 50.6163 4.07858 50.4084C3.97115 50.2005 3.81774 50.0198 3.63 49.88L1.63 47.93ZM42.09 47.93C42.0573 47.8897 42.0369 47.8408 42.0312 47.7892C42.0256 47.7376 42.0349 47.6855 42.0581 47.6391C42.0813 47.5926 42.1174 47.5539 42.1621 47.5274C42.2068 47.501 42.2581 47.488 42.31 47.49H44.5V46.5H41.9C41.5687 46.4888 41.246 46.6066 40.9998 46.8286C40.7536 47.0505 40.6031 47.3593 40.58 47.69C40.5741 47.913 40.6209 48.1342 40.7164 48.3357C40.812 48.5372 40.9537 48.7134 41.13 48.85L43.13 50.85C43.1854 50.8931 43.2257 50.9528 43.2448 51.0204C43.264 51.088 43.2611 51.1599 43.2366 51.2258C43.212 51.2916 43.1671 51.3478 43.1084 51.3864C43.0496 51.4249 42.9801 51.4437 42.91 51.44H40.46V52.44H43.25C43.4398 52.4467 43.629 52.4152 43.8065 52.3475C43.9839 52.2798 44.1459 52.1771 44.283 52.0457C44.4201 51.9142 44.5293 51.7566 44.6044 51.5821C44.6795 51.4077 44.7188 51.2199 44.72 51.03C44.7146 50.796 44.656 50.5663 44.5486 50.3584C44.4411 50.1505 44.2877 49.9698 44.1 49.83L42.09 47.93ZM47.42 49.93H49.33V49H47.42V47.42H49.98V46.5H45.98V52.5H50.06V51.5H47.46V49.88L47.42 49.93ZM56.5 52.54H54.9L53.75 50H53.1V52.46H51.63V46.46H54.32C54.5678 46.4258 54.82 46.4468 55.0588 46.5213C55.2975 46.5958 55.5169 46.7221 55.7012 46.8912C55.8855 47.0602 56.0303 47.2679 56.1252 47.4993C56.22 47.7307 56.2626 47.9802 56.25 48.23C56.2487 48.587 56.1363 48.9348 55.9285 49.2251C55.7206 49.5154 55.4276 49.7338 55.09 49.85L56.5 52.54ZM54.95 48.27C54.9507 48.1504 54.9261 48.032 54.8779 47.9225C54.8296 47.813 54.7588 47.715 54.6701 47.6348C54.5814 47.5545 54.4767 47.4939 54.363 47.4569C54.2492 47.4199 54.1289 47.4073 54.01 47.42H53.1V49.12H54C54.1197 49.1342 54.2411 49.1227 54.3561 49.0864C54.471 49.0501 54.5769 48.9897 54.6668 48.9094C54.7566 48.829 54.8284 48.7304 54.8772 48.6202C54.926 48.5099 54.9508 48.3906 54.95 48.27V48.27ZM37.65 52.49H39.12V46.49H37.65V52.49ZM33.44 49.88H35.35V49H33.44V47.42H36V46.5H32V52.5H36.05V51.5H33.45V49.88H33.44Z" fill="black"/>
</g>
<defs>
<clipPath id="clip0">
<rect width="56.5" height="52.49" fill="white"/>
</clipPath>
</defs>
</svg>
